# Blender 3.6.5
# www.blender.org
mtllib BKSHIELD1.mtl
o BKSHIELD1
v 0.563900 -3.356900 -5.800400
v 1.476500 -1.821600 -6.385200
v 1.825000 0.000000 -6.607500
v 1.476500 1.821600 -6.385200
v 0.563900 3.356900 -5.800400
v 0.562800 -4.733900 -3.814800
v 2.557300 -2.925700 -3.814800
v 3.161100 0.000000 -3.814800
v 2.557300 2.925700 -3.814800
v 0.562800 4.733900 -3.814800
v 0.562400 -5.466300 0.000000
v 2.953000 -3.378300 0.000000
v 3.650100 0.000000 0.000000
v 2.953000 3.378300 0.000000
v 0.562400 5.466300 0.000000
v 0.562800 -4.733900 3.814800
v 2.557300 -2.925700 3.814800
v 3.161100 0.000000 3.814800
v 2.557300 2.925700 3.814800
v 0.562800 4.733900 3.814800
v 0.563900 -3.356900 5.800400
v 1.476500 -1.821600 6.385200
v 1.825000 0.000000 6.607500
v 1.476500 1.821600 6.385200
v 0.563900 3.356900 5.800400
vn 0.8205 -0.4738 0.3198
vn 0.8085 -0.3657 0.4611
vn 0.6512 -0.7007 0.2915
vn 0.7134 -0.5760 0.3991
vn 0.8205 0.4738 0.3198
vn 0.6512 0.7007 0.2915
vn 0.8085 0.3657 0.4611
vn 0.7134 0.5760 0.3991
vn 0.8205 -0.4738 -0.3198
vn 0.6512 -0.7007 -0.2915
vn 0.8085 -0.3657 -0.4611
vn 0.7134 -0.5760 -0.3991
vn 0.8205 0.4738 -0.3198
vn 0.8085 0.3657 -0.4611
vn 0.6512 0.7007 -0.2915
vn 0.7134 0.5760 -0.3991
vn 0.6578 -0.7532 -0.0000
vn 0.8606 -0.5093 -0.0000
vn 0.6578 0.7532 -0.0000
vn 0.8606 0.5093 -0.0000
vn 0.9587 -0.0000 0.2846
vn 0.9021 -0.0000 0.4316
vn 0.9587 -0.0000 -0.2846
vn 0.9021 -0.0000 -0.4316
vn 1.0000 -0.0000 -0.0000
vt 0.488600 0.225900
vt 0.488600 0.299700
vt 0.425800 0.225900
vt 0.425800 0.299700
vt 0.614300 0.225900
vt 0.677200 0.225900
vt 0.614300 0.299700
vt 0.677200 0.299700
vt 0.488600 0.078400
vt 0.425800 0.078400
vt 0.488600 0.004600
vt 0.425800 0.004600
vt 0.614300 0.078400
vt 0.614300 0.004600
vt 0.677200 0.078400
vt 0.677200 0.004600
vt 0.425800 0.152200
vt 0.488600 0.152200
vt 0.677200 0.152200
vt 0.614300 0.152200
vt 0.551500 0.225900
vt 0.551500 0.299700
vt 0.551500 0.078400
vt 0.551500 0.004600
vt 0.551500 0.152200
s 1
usemtl en_hnbk0
f 17/1/1 22/2/2 16/3/3
f 16/3/3 22/2/2 21/4/4
f 19/5/5 20/6/6 24/7/7
f 20/6/6 25/8/8 24/7/7
f 7/9/9 6/10/10 2/11/11
f 1/12/12 2/11/11 6/10/10
f 9/13/13 4/14/14 10/15/15
f 4/14/14 5/16/16 10/15/15
f 11/17/17 12/18/18 16/3/3
f 12/18/18 17/1/1 16/3/3
f 15/19/19 20/6/6 14/20/20
f 14/20/20 20/6/6 19/5/5
f 11/17/17 6/10/10 12/18/18
f 6/10/10 7/9/9 12/18/18
f 15/19/19 14/20/20 10/15/15
f 9/13/13 10/15/15 14/20/20
f 17/1/1 18/21/21 22/2/2
f 18/21/21 23/22/22 22/2/2
f 7/9/9 2/11/11 8/23/23
f 2/11/11 3/24/24 8/23/23
f 9/13/13 8/23/23 4/14/14
f 3/24/24 4/14/14 8/23/23
f 19/5/5 24/7/7 18/21/21
f 18/21/21 24/7/7 23/22/22
f 13/25/25 12/18/18 8/23/23
f 7/9/9 8/23/23 12/18/18
f 13/25/25 8/23/23 14/20/20
f 8/23/23 9/13/13 14/20/20
f 13/25/25 18/21/21 12/18/18
f 12/18/18 18/21/21 17/1/1
f 13/25/25 14/20/20 18/21/21
f 14/20/20 19/5/5 18/21/21
