# Blender 3.6.5
# www.blender.org
mtllib BKSHIELD0.mtl
o BKSHIELD0
v 0.565400 0.000000 -7.629700 0.0000 0.0000 0.0000
v 0.563900 3.356900 -5.800400 0.0000 0.0000 0.0000
v 0.108600 0.000000 -6.633800 0.0000 0.0000 0.0000
v 1.476500 1.821600 -6.385200 0.0000 0.0000 0.0000
v 0.563900 -3.356900 -5.800400 0.0000 0.0000 0.0000
v 1.476500 -1.821600 -6.385200 0.0000 0.0000 0.0000
v 1.825000 0.000000 -6.607500 0.0000 0.0000 0.0000
v 1.476500 -1.821600 6.385200 0.0000 0.0000 0.0000
v 0.565400 0.000000 7.629700 0.0000 0.0000 0.0000
v 0.563900 -3.356900 5.800400 0.0000 0.0000 0.0000
v 0.108600 0.000000 6.633800 0.0000 0.0000 0.0000
v 0.563900 3.356900 5.800400 0.0000 0.0000 0.0000
v 1.476500 1.821600 6.385200 0.0000 0.0000 0.0000
v 1.825000 0.000000 6.607500 0.0000 0.0000 0.0000
vn -0.2278 -0.0000 0.9737
vn -0.8997 -0.0000 -0.4364
vn -0.1269 -0.9253 -0.3574
vn -0.1269 0.9253 -0.3574
vn -0.2278 -0.0000 -0.9737
vn -0.1269 -0.9253 0.3574
vn -0.8997 -0.0000 0.4364
vn -0.1269 0.9253 0.3574
vn 0.9034 -0.3948 -0.1672
vn 0.9034 0.3948 -0.1672
vn 0.9034 -0.3948 0.1672
vn 0.9034 0.3948 0.1672
vn 0.9678 -0.0000 -0.2516
vn 0.9678 -0.0000 0.2516
vt 0.787900 0.814700
vt 0.787900 0.794600
vt 0.704100 0.814600
vt 0.871700 0.814600
vt 0.742400 0.854600
vt 0.833400 0.854600
vt 0.787900 0.869900
s 1
usemtl en_hnbk0
f 9/1/1 11/2/2 10/3/3
f 9/1/1 12/4/4 11/2/2
f 1/1/5 5/3/6 3/2/7
f 1/1/5 3/2/7 2/4/8
f 10/3/3 8/5/9 9/1/1
f 13/6/10 12/4/4 9/1/1
f 6/5/11 5/3/6 1/1/5
f 2/4/8 4/6/12 1/1/5
f 8/5/9 14/7/13 9/1/1
f 14/7/13 13/6/10 9/1/1
f 7/7/14 6/5/11 1/1/5
f 4/6/12 7/7/14 1/1/5
f 10/3/3 11/2/2 8/5/9
f 11/2/2 14/7/13 8/5/9
f 12/4/4 13/6/10 11/2/2
f 14/7/13 11/2/2 13/6/10
f 5/3/6 6/5/11 3/2/7
f 7/7/14 3/2/7 6/5/11
f 2/4/8 3/2/7 4/6/12
f 3/2/7 7/7/14 4/6/12
